<?xml version="1.0" encoding="utf-8"?>
<!-- Generator: Adobe Illustrator 16.0.0, SVG Export Plug-In . SVG Version: 6.00 Build 0)  -->
<!DOCTYPE svg PUBLIC "-//W3C//DTD SVG 1.1//EN" "http://www.w3.org/Graphics/SVG/1.1/DTD/svg11.dtd">
<svg version="1.1" id="Layer_1" xmlns="http://www.w3.org/2000/svg" xmlns:xlink="http://www.w3.org/1999/xlink" x="0px" y="0px"
	 width="141.65px" height="139.111px" viewBox="0 0 141.65 139.111" enable-background="new 0 0 141.65 139.111"
	 xml:space="preserve">
<g transform="translate(338.416 2421.117)">
	<path fill="#D35A00" d="M-249.534-2387.933c-2.699-0.092-5.328,0.87-7.331,2.683c-1.95,1.811-2.938,4.48-2.938,7.935
		c-0.159,2.538,0.718,5.032,2.432,6.911c1.726,1.659,4.057,2.539,6.449,2.434c0.372,0,0.765-0.02,1.176-0.059
		c-0.448,3.202-1.92,6.175-4.195,8.473c-2.871,3.082-6.006,4.58-9.584,4.58c-3.386,0-4.917-1.267-5.11-4.233v-28.301h13.087
		l-7.563-9.321h-5.524v-7.77c0-5.7-0.865-9.738-2.648-12.349c-1.889-2.765-4.881-4.165-8.893-4.165
		c-2.478,0.077-4.919,0.628-7.19,1.621l-1.418,0.575l3.373,9.445l1.52-0.57c0.643-0.237,1.268-0.519,1.871-0.84
		c0.284-0.147,0.601-0.221,0.92-0.214c1.514,0,2.45,0.487,2.45,2.912v11.354h-12.594l7.036,9.322h5.1v22.569
		c-0.026,2.591,0.134,5.181,0.48,7.749c0.291,2.186,1.091,4.273,2.336,6.094c2.691,4,7.728,6.023,14.969,6.023
		c6.041,0,11.634-2.53,16.614-7.512c5.164-5.131,8.186-12.033,8.451-19.309v-0.101
		C-236.258-2385.167-243.477-2387.933-249.534-2387.933z"/>
</g>
<path d="M29.032,95.743v31.929H39.27c0.22,0,0.438,0.029,0.65,0.088l39.165,10.678c5.355,1.448,11.074,0.524,15.7-2.537
	l44.428-29.289c1.544-1.039,2.46-2.784,2.438-4.645v-0.174c0.049-2.953-2.295-5.393-5.248-5.462
	c-0.572,0.001-1.141,0.098-1.681,0.286l-24.563,8.484c-1.51,3.919-5.262,6.518-9.462,6.551h-25.6
	c-1.439-0.025-2.584-1.213-2.56-2.651c-0.024-1.438,1.12-2.626,2.56-2.652h25.6c2.377-0.024,4.428-1.674,4.962-3.99v-0.007
	c0.104-0.425,0.157-0.861,0.157-1.3c0.053-2.88-2.239-5.257-5.119-5.311h-25.6c-0.685-0.003-1.338-0.283-1.811-0.777l-0.259-0.27
	c-8.339-8.752-22.193-9.087-30.945-0.748c-0.256,0.243-0.505,0.493-0.749,0.748l-0.259,0.27c-0.473,0.494-1.126,0.774-1.81,0.777
	L29.032,95.743z"/>
<rect x="0.001" y="96.109" fill="#D35A00" width="25.949" height="34.142"/>
<circle fill="#FFFFFF" cx="17.995" cy="104.551" r="3.467"/>
</svg>
