<svg xmlns="http://www.w3.org/2000/svg" width="461.3" height="141.5" viewBox="0 0 461.3 141.5">
  <defs>
    <style>
      .a{fill:#f2f2f2}.b{fill:#ededed}.c{fill:#ebe8e8}.d{fill:#eae7e7}.e{fill:#ebebeb}
    </style>
  </defs>
  <path d="M426 39.8v-.3h5.7v-1.7H426V37a.9.9 0 0 0-1-.8h-.6V25.4a.4.4 0 0 0-.9 0v10.8h-.7a.9.9 0 0 0-1 .8v.8h-5.6v1.7h5.7v.3h-8.1v99H434v-99zM403.4 64v-2.8H401a1.3 1.3 0 0 0 .1-.5 1.3 1.3 0 1 0-2.5 0 1.3 1.3 0 0 0 0 .5h-3v-1.8h-11v-2.2h-4.4v2.2h-4.7V64h-10.3v1.4h2V139h40V64z" class="a"/>
  <path d="M460 130.8v-27.3h-1.2V93.3c0-.9-6.7-.9-15-.9h-5l-10.3.1v-3.4c0-1-1.3-1-2.8-1h-1c-1.5 0-2.7 0-2.7 1v6.5h-1.2v-1.8H417v1.8h-12a.8.8 0 0 0-.8.5h-5.4a.7.7 0 1 0 0 1.4h1v4h-9v3.2h1v26.1h-1v10.7h70.4v-10.7zm-47.2-33.3h4.3v4h-4.3zm-.8 4h-2v-4h2zm-2.8-4v4h-6v-4zm-8.5 0h1.6v4h-1.6zM272 18.4v-4.7h-7.6v-1.5h-7v1.5H255v-2h-.8v-7h-1.7v9h-2.6v-1.5h-1V8.5h-3v5.2h-3.2v-1.5H230v1.5h-4v4.7h1.8v1.2H226V21h1.7v9H226v1.4h1.7V137h42.5V31.4h1.8V30h-1.8v-9h1.8v-1.4h-1.8v-1.2z" class="a"/>
  <path d="M227 48v-8h-5v-2.7h-10V40h-9.6v-2.8h-7.5V40h-3.5v7.8H187v89h44V48zm130.3 20.4v-6h-20.7v-2h1.9v-1.2h-3.7v-1.5h-18v4.6h-14.3v6.1h1v3.3h-1v3h1v1.9h-1v3h1v1.9h-1v3h1v2h-1v3h1v2h-1v3h1v1.8h-1v3h1v1.9h-1v3h1v1.9h-1v3h1v2h-1v2.9h1v2h-1v3h1v2h-1v3h1v1.8h-1v3h1v2h-1v2.9h1v1h-1v6.4h54.8v-6.4h-1v-1h1v-3h-1v-2h1v-2.9h-1v-2h1v-3h-1V119h1v-3h-1v-2h1v-3h-1v-2h1v-3h-1v-2h1v-3h-1v-1.8h1v-3h-1v-1.9h1v-3h-1v-2h1v-2.9h-1v-2h1v-2.9h-1v-2h1v-3h-1v-2h1v-3h-1v-3z" class="b"/>
  <path d="M361.5 113.5v-3.2h-.8V66.6h-3.5v-2a1.3 1.3 0 0 0 0-2.5v-.8a1.4 1.4 0 0 0 0-2.4 2 2 0 1 0-2-3.3v-3a.8.8 0 0 0 .2-.3.8.8 0 0 0-.3-1V41a.8.8 0 1 0-1.6 0v9.7a.8.8 0 0 0-.1 1.5v.4a.8.8 0 0 0 0 1.5v1.6l-.3-.3a5 5 0 0 0-1.3-.6v-7.9a.5.5 0 1 0-1 0v7.9a.9.9 0 0 0-.3.5 13.5 13.5 0 0 0-.6-.5.9.9 0 0 0-.5-1.6v-.7a.6.6 0 1 0-1.2 0v4h-.6a1.5 1.5 0 0 0-1.3.7v-3.5a.7.7 0 0 0-.3-1.5.5.5 0 0 0-.2 0 .5.5 0 0 0-.5.5v1.5a.8.8 0 0 0-.3-.1v-.3a.6.6 0 1 0-1.2 0V59h-.8v7.7h-3.5v43.7h-.8v3.2h.8v.8h-.8v3.2h.8v.7h-.8v3.2h.8v.7h-.8v3.2h.8v.8h-.8v3.2h.8v.7h-.8v3.2h.8v.7h-.8v3.2h.8v.8h-.8v3.2h22.7V138h-.7v-.8h.7V134h-.7v-.7h.7V130h-.7v-.7h.7V126h-.7v-.8h.7V122h-.7v-.7h.7v-3.2h-.7v-.7h.7v-3.2h-.7v-.8zM345.3 59h-.3v-3.2a.8.8 0 0 0 .3 0zm5.6 0h-.9a1.5 1.5 0 0 0 .3-.6l.6.3zm2.6 0h-1.7v-.2a.9.9 0 0 0 .3-.5 4.5 4.5 0 0 1 1 .5.6.6 0 0 0 .4 0zm-40.7 64.6V37.8h-8.6V35h.6v-4.6h-2.4a.8.8 0 1 0-1.1 0h-.7v-1.9a.9.9 0 1 0 0-1.4V26a1.1 1.1 0 0 0 0-1.8v-.6a2 2 0 0 0 0-3.3v-.6a.2.2 0 1 0-.5 0v.3a2 2 0 0 0-1.8.2v-.7a.3.3 0 1 0-.5 0v1.2a2 2 0 0 0-.2.4v-1a.3.3 0 0 0-.6-.2.5.5 0 1 0 0 .6v1.2a.8.8 0 1 0 0 1.6v.3a.7.7 0 0 0-.3 0 .7.7 0 1 0-.6.8.6.6 0 0 0 .6.5.7.7 0 0 0 .3 0v1a.8.8 0 1 0 0 .8V28a1 1 0 1 0-1.4 1.3.6.6 0 0 0-.6.5.3.3 0 0 0-.2 0 .7.7 0 0 0 0-.7v-9a.2.2 0 0 0-.5 0v8.7a.6.6 0 0 0-.7 1v-4.4a.3.3 0 1 0-.6 0v3.6a.6.6 0 0 0-.7.6h-3a.6.6 0 0 0-.6-.6v-3.3a.2.2 0 1 0-.4 0V29a.7.7 0 0 0 0 1v.3H286V35h.5v3H278v85.6h-2V141h38.7v-17.6zm-15.2-93.3zm-1.5-1a1 1 0 0 0 .9-.5v1.6h-1a.7.7 0 0 0 0-1.1zm-1.3.8a.3.3 0 0 0 .2 0 .6.6 0 0 0 .3.3h-.6V30zm-.5 0v.3h-.8V30zm-5.6.1a.6.6 0 0 0 .3 0h3.5a.7.7 0 0 0 .4 0v.2h-4.2z" class="a"/>
  <path d="M281.5 95.2h-.6v-1.8h.4v-1.2h-.4v-.4h.6l.6-1.7h-.2v-.7h-.4v-2h-.7v-1.9a.5.5 0 0 1 .4-.5v-.3l1.2-.7-1.6-1a5.2 5.2 0 0 0 .2-1 1.8 1.8 0 0 0-.5-.8 11.2 11.2 0 0 0-1-.7l-.5-.4v-1a.1.1 0 1 0-.3 0v1l-.5.4a11.3 11.3 0 0 0-1 .7 1.8 1.8 0 0 0-.4 1 5 5 0 0 0 0 1l-1.5.8 1.2.7v.3a.5.5 0 0 1 .4.5v1.8h-.7v2h-.4v.8h-.2l.3.7-2.5-1.9a.3.3 0 0 0 0-.5h-.3V88a1 1 0 0 0 .5-1 1 1 0 0 0-.7-1l-.2-.2-.2.4a1 1 0 0 0-.7 1 1 1 0 0 0 .5.8l-2.8-2v-.5h.3v-1.3h-.3v-2.5h.3V81h-.3v-1h-1.1v-2h-.9v-3.8a.5.5 0 0 1 .4-.4h1.1l.2-.9h-1.4a3.5 3.5 0 0 0 0-.7 1.5 1.5 0 0 0-.3-.8l-.8-.6-.4-.3v-.8a.1.1 0 1 0-.2 0v.8l-.4.3a9.7 9.7 0 0 0-.8.6 1.5 1.5 0 0 0-.4.8 3.6 3.6 0 0 0 0 .7h-1.3l.2 1h1a.5.5 0 0 1 .5.3V78h-.5v.2h-.4v2h-4.6v-2h-.4V78h-.4v-3.8a.5.5 0 0 1 .3-.4h1.2V73H259a3.6 3.6 0 0 0 0-.7 1.5 1.5 0 0 0-.3-.8 9.7 9.7 0 0 0-.8-.6l-.5-.3v-.8a.1.1 0 1 0-.2 0v.8l-.4.3a9.8 9.8 0 0 0-.8.6 1.5 1.5 0 0 0-.4.8 3.6 3.6 0 0 0 0 .7h-1.2v1h1.3a.5.5 0 0 1 .3.3V78h-.5v.2h-.4v2h-.7v.9h-.5v.8h.5v2.5h-.5v.7h-3.6a.3.3 0 0 0 0-.2.3.3 0 0 0-.2-.4h-.3V84a1.1 1.1 0 0 0 .6-1 1.1 1.1 0 0 0-.8-1c0-.4-.1-.6-.2-.6s-.2.2-.2.5a1.1 1.1 0 0 0-.8 1 1.1 1.1 0 0 0 .5 1v.3a.5.5 0 0 0 0 .1h-.2a.3.3 0 0 0-.3.4.3.3 0 0 0 0 .2h-8a.3.3 0 0 0 0-.2.3.3 0 0 0-.2-.3h-.3V84a1.1 1.1 0 0 0 .6-1 1.1 1.1 0 0 0-.8-1c0-.4 0-.6-.2-.6s-.2.2-.2.5a1.1 1.1 0 0 0-.8 1 1.1 1.1 0 0 0 .5 1v.3a.5.5 0 0 0 0 .1h-.2a.3.3 0 0 0-.3.4.3.3 0 0 0 0 .2h-8a.3.3 0 0 0 0-.2.3.3 0 0 0-.2-.3h-.3V84a1.1 1.1 0 0 0 .6-1 1.1 1.1 0 0 0-.8-1c0-.4 0-.6-.2-.6s-.2.2-.2.5a1.1 1.1 0 0 0-.8 1 1.1 1.1 0 0 0 .6 1v.3a.6.6 0 0 0 0 .1h-.3a.3.3 0 0 0-.3.4.3.3 0 0 0 0 .2h-8a.3.3 0 0 0 0-.2.3.3 0 0 0-.2-.3h-.2V84a1.1 1.1 0 0 0 .5-1 1.1 1.1 0 0 0-.8-1c0-.4 0-.6-.2-.6s-.2.2-.2.5a1.1 1.1 0 0 0-.8 1 1.1 1.1 0 0 0 .6 1v.3a.6.6 0 0 0 0 .1h-.3a.3.3 0 0 0-.3.4.3.3 0 0 0 0 .2h-6.8v-3.7h.7v-2h-.7v-.7h1l1-3h-.3v-1h-.6V71h-1.3v-3a.9.9 0 0 1 .7-.8v-.4l2-1.2-2.7-1.5a8.7 8.7 0 0 0 .3-1.7 3 3 0 0 0-1-1.5 19.6 19.6 0 0 0-1.5-1.2c-.2 0-.8-.5-1-.7v-1.6a.2.2 0 1 0-.3 0V59c0 .2-.7.6-.8.7a19.5 19.5 0 0 0-1.7 1.2 3 3 0 0 0-.8 1.5 8.8 8.8 0 0 0 .2 1.7l-2.7 1.5 2 1.2v.4a.9.9 0 0 1 .8.8v3h-1.3v3l-2-.7a.3.3 0 0 0 0-.2.3.3 0 0 0-.4-.3h-.3v-.4a1.1 1.1 0 0 0 .6-1 1.1 1.1 0 0 0-.8-1c0-.3-.1-.5-.2-.5l-.2.4a1.1 1.1 0 0 0-.8 1.1 1.1 1.1 0 0 0 .5 1v.3l-4.8-1.6a.3.3 0 0 0 0-.2.3.3 0 0 0-.2-.3h-.3a.6.6 0 0 0 0-.1v-.3a1.1 1.1 0 0 0 .6-1 1.1 1.1 0 0 0-1-1.1l-.1-.5c-.1 0-.2.2-.2.5a1.1 1.1 0 0 0-.8 1 1.1 1.1 0 0 0 .6 1v.3a.6.6 0 0 0 0 .2h-.3l-4.5-1.6a.3.3 0 0 0 0-.2.3.3 0 0 0-.3-.3h-.2v-.3a1.1 1.1 0 0 0 .5-1 1.1 1.1 0 0 0-.8-1.1c0-.3 0-.5-.2-.5s-.2.2-.2.5a1.1 1.1 0 0 0-.8 1 1.1 1.1 0 0 0 .6 1v.3a.5.5 0 0 0 0 .1l-5.5-2v-1.4h.7v-2.2h-.7V62h1.2l1-3h-.4v-1.4h-.6v-3.9h-1.4v-3.4a1 1 0 0 1 .7-.9V49l2.3-1.2-3-1.8a9.7 9.7 0 0 0 .3-1.8 3.3 3.3 0 0 0-1-1.7 21.6 21.6 0 0 0-1.7-1.3c-.2 0-1-.5-1-.8v-1.7a.2.2 0 1 0-.4 0v1.7l-1 .8a21.8 21.8 0 0 0-1.8 1.3 3.3 3.3 0 0 0-1 1.7 9.7 9.7 0 0 0 .3 1.8l-3 1.8 2.3 1.2v.5a1 1 0 0 1 .8 1v3.3h-1.4V56l-6.6-3a.3.3 0 0 0 0-.2.3.3 0 0 0-.2-.3h-.3v-.3a1.1 1.1 0 0 0 .6-1 1.1 1.1 0 0 0-.8-1.1c0-.3-.1-.5-.2-.5l-.2.4a1.1 1.1 0 0 0-1 1.2 1.1 1.1 0 0 0 .7 1v.2l-6.4-2.8V48h.5v-2h-.5v-5h.5v-1.7h.6v-1.5h.4V37h-.8v-3h.8v-7h2v-2.3h.8V23h-3.7v-4.8h.7V17h-1.3V9.4a1 1 0 0 1 .7-.9h2.4l.3-1.7H160a7.2 7.2 0 0 0 .2-1.5 3 3 0 0 0-1-1.6 19.4 19.4 0 0 0-1.5-1.2l-1-.7V.2a.2.2 0 1 0-.3 0v1.6c0 .2-.7.6-.8.7a19.4 19.4 0 0 0-1.7 1.2 3 3 0 0 0-.8 1.5 7.3 7.3 0 0 0 .2 1.6h-2.7l.3 1.7h2.4a1 1 0 0 1 .6.9v7.5h-1.2v1.3h.7v.2H150v-1.1h-.6V17h-.5v-3.7a.5.5 0 0 1 .4-.5h1l.3-.8h-1.3a2.8 2.8 0 0 0 0-.7 1.5 1.5 0 0 0-.4-.8 9.3 9.3 0 0 0-.8-.5l-.4-.4v-.8a.1.1 0 1 0-.2 0v.8l-.4.4a9.6 9.6 0 0 0-.8.5 1.5 1.5 0 0 0-.4.8 2.7 2.7 0 0 0 0 .7h-1.3l.2.8h1a.5.5 0 0 1 .5.5V17h-.5v.1h-.6v1.2h-1.5v-1h-.6V17h-.5v-3.7a.5.5 0 0 1 .3-.5h1.2l.2-.8H143a2.7 2.7 0 0 0 .1-.7 1.5 1.5 0 0 0-.4-.8 9.3 9.3 0 0 0-.8-.5l-.4-.4v-.8a.1.1 0 1 0-.2 0v.8l-.4.4a9.6 9.6 0 0 0-1 .5 1.5 1.5 0 0 0-.3.8 2.8 2.8 0 0 0 0 .7h-1.2v.8h1.3a.5.5 0 0 1 .3.5V17h-.4v.1h-.6v1.2h-1.6v-1h-.6V17h-.4v-3.7a.5.5 0 0 1 .3-.5h1.2V12h-1.2a2.7 2.7 0 0 0 0-.7 1.5 1.5 0 0 0-.3-.8 9.5 9.5 0 0 0-1-.5l-.3-.4v-.8a.1.1 0 1 0-.2 0v.8l-.4.4a9.4 9.4 0 0 0-.8.5 1.5 1.5 0 0 0-.4.8 2.7 2.7 0 0 0 0 .7H132l.1.8h1.2a.5.5 0 0 1 .3.5V17h-.5v.1h-.6v1.2h-3.1V18h.7v-1.3h-1.3V9.4a1 1 0 0 1 .7-.9h2.4l.3-1.7h-2.7a7.4 7.4 0 0 0 .1-1.5 3 3 0 0 0-.8-1.6 19.4 19.4 0 0 0-1.6-1.2c-.2 0-.8-.5-.9-.7V.2a.2.2 0 1 0-.4 0v1.6c0 .2-.7.6-.8.7a19.3 19.3 0 0 0-1.7 1.2 3 3 0 0 0-.8 1.5 7.4 7.4 0 0 0 .2 1.6H120l.3 1.7h2.3a1 1 0 0 1 .7.9v7.5H122v1.3h.7V23H119v1.7h.8V27h2v7h.7v3h-.7v.7h.4v1.5h.6V41h.4v5.2h-.4v1.9h.4v1.5l-6.3 2.9v-.3a1.1 1.1 0 0 0 .5-1 1.1 1.1 0 0 0-.8-1.1c0-.3-.1-.5-.2-.5s-.2.2-.2.5a1.1 1.1 0 0 0-.8 1 1.1 1.1 0 0 0 .5 1v.3a.6.6 0 0 0 0 .1h-.2a.3.3 0 0 0-.3.3.3.3 0 0 0 0 .3l-6.5 3v-2.4h-1.4v-3.4a1 1 0 0 1 .7-.9V49l2.3-1.2-3-1.8a9.7 9.7 0 0 0 .3-1.8 3.3 3.3 0 0 0-1-1.7 21.8 21.8 0 0 0-1.8-1.3l-1-.8v-1.7a.2.2 0 1 0-.4 0v1.7c0 .2-.7.7-1 .8a21.7 21.7 0 0 0-1.7 1.3 3.3 3.3 0 0 0-1 1.7 9.6 9.6 0 0 0 .3 1.8l-3 1.8 2.3 1.2v.5a1 1 0 0 1 .7 1v3.3H99v4h-.7V59H98l1 3h1.2v1h-.8v2h.7v1.7l-5.4 1.9v-.3a1.1 1.1 0 0 0 .5-1 1.1 1.1 0 0 0-.8-1.1c0-.3 0-.5-.2-.5s-.2.2-.2.4a1.1 1.1 0 0 0-.8 1.2 1.1 1.1 0 0 0 .6 1v.2h-.3a.3.3 0 0 0-.3.4.3.3 0 0 0 0 .2l-4.5 1.6h-.2a.6.6 0 0 0 0-.2v-.2a1.1 1.1 0 0 0 .5-1 1.1 1.1 0 0 0-.8-1.1c0-.3-.1-.5-.2-.5s-.2.2-.2.5a1.1 1.1 0 0 0-.8 1 1.1 1.1 0 0 0 .5 1v.3h-.2a.3.3 0 0 0-.3.4.3.3 0 0 0 0 .3l-4.8 1.7v-.4a1.1 1.1 0 0 0 .6-1 1.1 1.1 0 0 0-.8-1c0-.3 0-.5-.2-.5l-.2.4a1.1 1.1 0 0 0-1 1.1 1.1 1.1 0 0 0 .7 1v.3H81a.3.3 0 0 0-.3.4.3.3 0 0 0 0 .2l-2 .7v-3h-1.3v-3a.9.9 0 0 1 .7-.8V67l2-1.2-2.6-1.5a8.8 8.8 0 0 0 .2-1.7 3 3 0 0 0-.9-1.5 19.5 19.5 0 0 0-1.6-1.2l-.9-.7v-1.6a.2.2 0 1 0-.4 0V59c0 .2-.7.6-.8.7a19.5 19.5 0 0 0-1.6 1.2 3 3 0 0 0-1 1.5 8.7 8.7 0 0 0 .3 1.7l-2.7 1.5 2 1.2v.4a.9.9 0 0 1 .8.8v3h-1.3v3.6H69v1h-.3l1 3h1v.8H70v2h.7V85h-7a.3.3 0 0 0 .2 0 .3.3 0 0 0-.3-.5h-.3V84a1.1 1.1 0 0 0 .6-1 1.1 1.1 0 0 0-.8-1c0-.4-.1-.6-.2-.6s-.2.2-.2.5a1.1 1.1 0 0 0-.8 1 1.1 1.1 0 0 0 .5 1v.3a.6.6 0 0 0 0 .1h-.2a.3.3 0 0 0-.3.4.3.3 0 0 0 0 .2h-8a.3.3 0 0 0 .1-.2.3.3 0 0 0-.3-.4h-.3V84a1.1 1.1 0 0 0 .6-1 1.1 1.1 0 0 0-.8-1c0-.4 0-.6-.2-.6s-.2.2-.2.5a1.1 1.1 0 0 0-.8 1 1.1 1.1 0 0 0 .6 1v.3a.5.5 0 0 0 0 .1h-.3a.3.3 0 0 0-.3.4.3.3 0 0 0 0 .2h-8a.3.3 0 0 0 0-.2.3.3 0 0 0 0-.4h-.4V84a1.1 1.1 0 0 0 .5-1 1.1 1.1 0 0 0-.8-1c0-.4 0-.6-.2-.6s-.2.2-.2.5a1.1 1.1 0 0 0-.8 1 1.1 1.1 0 0 0 .6 1v.3a.6.6 0 0 0 0 .1h-.5a.3.3 0 0 0-.3.4.3.3 0 0 0 .1.2h-8a.3.3 0 0 0 0-.2.3.3 0 0 0-.2-.4h-.3V84a1.1 1.1 0 0 0 .6-1 1.1 1.1 0 0 0-.8-1c0-.4 0-.6-.2-.6s-.2.2-.2.5a1.1 1.1 0 0 0-.8 1 1.1 1.1 0 0 0 .5 1v.3a.5.5 0 0 0 0 .1h-.2a.3.3 0 0 0-.3.4.3.3 0 0 0 0 .2h-3.6v-.7h-.4v-2.5h.4V81h-.4v-1h-.8v-2h-.8v-4a.5.5 0 0 1 .4-.4H28l.2-1H27a3.5 3.5 0 0 0 0-.6 1.5 1.5 0 0 0-.4-.8 9.7 9.7 0 0 0-.8-.6l-.4-.3v-.8a.1.1 0 1 0-.2 0v.8l-.4.3a9.7 9.7 0 0 0-.8.6 1.5 1.5 0 0 0-.4.8 3.6 3.6 0 0 0 0 .7h-1.3l.2.9h1.1a.5.5 0 0 1 .4.4v4h-.5v.2H23v2h-4.5v-2H18V78h-.4v-4a.5.5 0 0 1 .3-.4H19l.1-1H18a3.5 3.5 0 0 0 0-.6 1.5 1.5 0 0 0-.3-.8 9.7 9.7 0 0 0-.8-.6l-.5-.3v-.8a.1.1 0 1 0-.2 0v.8l-.4.3a9.7 9.7 0 0 0-.8.6 1.5 1.5 0 0 0-.4.8 3.6 3.6 0 0 0 0 .7h-1.2l.1.9h1.2a.5.5 0 0 1 .3.4v4h-.5v.2h-.3v2H13v.8h-.3v1h.3v2.4h-.3v1.3h.3v.5l-2.8 2a1 1 0 0 0 .5-.9 1 1 0 0 0-.7-1c0-.2 0-.4-.2-.4s-.1.2-.1.5a1 1 0 0 0-.7 1 1 1 0 0 0 .4.8v.2a.5.5 0 0 0 0 .1h-.2a.3.3 0 0 0 0 .6l-2.5 1.8.2-.7h-.2v-.7h-.3v-2h-.8v-2A.5.5 0 0 1 6 85v-.3l1.3-.7-1.6-1a5.2 5.2 0 0 0 0-1 1.8 1.8 0 0 0-.4-.8 11.3 11.3 0 0 0-1-.7l-.5-.4v-1a.1.1 0 1 0-.2 0v1l-.5.4a11.3 11.3 0 0 0-1 .7 1.8 1.8 0 0 0-.5 1 5.1 5.1 0 0 0 .1 1L0 84l1.2.7v.3a.5.5 0 0 1 .4.5v1.8H1v2H.6v.8H.4l.5 1.7h.6v.4h-.3v1.2h.3v1.8H1v16.5H0l.5 1.5H1v.5H.8V141h280.8v-26.2h.1v-1.6h.3l.5-1.6h-1zM3.3 85.5v1.8h-1v-1.8a.5.5 0 0 1 1 0zm1.6 0v1.8H4v-1.8a.5.5 0 0 1 1 0zm12-11.4V78h-1.3v-4a.5.5 0 0 1 .3-.4h.7a.5.5 0 0 1 .3.4zm9 0V78h-1.4v-4a.5.5 0 0 1 .4-.4h.6a.5.5 0 0 1 .4.4zm47.7-6v3h-1.8v-3a.9.9 0 0 1 1.8 0zm2.8 0v3h-1.8v-3a.9.9 0 0 1 1.8 0zm27-17.7v3.3h-2v-3.3a1 1 0 0 1 2 0zm3.1 0v3.3h-2v-3.3a1 1 0 0 1 2 0zm48.6-41a1 1 0 0 1 .6-.9h1.4a1 1 0 0 1 .6.9v7.5H155zm-8.2 4a.5.5 0 0 1 .3-.5h.7a.5.5 0 0 1 .3.5V17H147zm-6.4 0a.5.5 0 0 1 .4-.5h.6a.5.5 0 0 1 .4.5V17h-1.4zm-6.3 0a.5.5 0 0 1 .3-.5h.7a.5.5 0 0 1 .3.5V17h-1.3zm-9.5-4a1 1 0 0 1 .6-.9h1.4a1 1 0 0 1 .7.9v7.5h-2.7zm53.2 41v3.3h-2v-3.2a1 1 0 0 1 2 0zm3 0v3.3H179v-3.2a1 1 0 0 1 2 0zm27 17.7v3H206v-3a.9.9 0 0 1 1.8 0zm2.7 0v3h-1.8v-3a.9.9 0 0 1 1.8 0zm47.3 6V78h-1.4v-3.8a.5.5 0 0 1 .4-.4h.6a.5.5 0 0 1 .4.4zm9 0V78h-1.4v-3.8a.5.5 0 0 1 .3-.4h.7a.5.5 0 0 1 .3.4zm11.6 11.4v1.8h-1v-1.8a.5.5 0 0 1 1 0zm1.7 0v1.8h-1v-1.8a.5.5 0 0 1 1 0z" class="a"/>
  <path d="M67 54.3v-3h-2.3V43H23.5v94.4h41.2V61.8h2.2v-3h-2.2V58h2.2v-3h-2.2v-.7z" class="a"/>
  <path d="M160.6 53v-1.2H152v-3h-4.6v-8h-1.5v8h-4.7v-1.2h-5.3v1.3h-5.3v2.9h-8.8V53h-7.4v84.7h51.3V53z" class="b"/>
  <path d="M120 42.3l-.8-34.5v-.1a.1.1 0 0 0 0-.1.3.3 0 0 0-.1 0 .3.3 0 0 0 0-.1.2.2 0 0 0-.1 0h-.3a.2.2 0 0 0-.1 0v.2a.3.3 0 0 0 0 .1l-.8 34.5h-.3v-1.4h-3.2v-1.3h-.4l-.7-34.3V5a.3.3 0 0 0-.1 0h-.3a.3.3 0 0 0-.1 0 .2.2 0 0 0-.1 0h-.1v.3l-.8 34.4h-.6v-3.2H98.6l-.4-16.6a.2.2 0 0 0 0-.1.2.2 0 0 0-.1 0v-.2H98a.2.2 0 0 0-.2 0h-.1a.3.3 0 0 0-.1 0 .4.4 0 0 0 0 .1h-.1v.2L97 36.5h-.3v4H90V38h-1.5L88 10.2V10a.2.2 0 0 0 0-.1.2.2 0 0 0-.2 0h-.2a.2.2 0 0 0-.1 0 .2.2 0 0 0-.2 0 .3.3 0 0 0 0 .1.3.3 0 0 0 0 .1l-.7 29.5h-1.3v2.6H82v95.5h40V42.3zm-32.5-15v3.3zm0 4v.6zm0 1.3h.2v.5h-.3zm0 1.2h.2v.6h-.3zm0 1.3h.2v.5h-.3zm0 1.3h.2v.5h-.4zm0 1.2h.3v.6h-.5zm-.2 1.3h.5v.5h-.5zm25.5-16.5v3.3zm0 4h.1v.5h-.2zm-.1 1.3h.2v.5h-.2zm0 1.2h.3v.6h-.3zm0 1.3h.3v.5h-.4zm0 1.3h.3v.5h-.4zm-.1 1.2h.4v.6h-.4zm0 1.3h.5v.5h-.5zm0 1.3h.5v.5h-.6zm0 1.2h.5v.6h-.6zm-.1 1.3h.7v.5h-.7zm0 1.3h.7v.5h-.8zm6.4-14.2v3.3zm0 4h.1v.6h-.2zm0 1.3h.1v.5h-.2zm0 1.3h.1v.5h-.3zm0 1.2h.2v.5h-.4zm-.2 1.3h.4v.5h-.4zm0 1.3h.4v.5h-.4zm0 1.2h.4v.5h-.5zm0 1.3h.5v.5h-.6zm-.1 1.2h.6v.6h-.6zm0 1.3h.6v.5h-.7zm0 1.3h.7v.7h-.8z" class="a"/>
  <path d="M113.8 90a2.3 2.3 0 0 1 .4-.2c-.2 0-.3-.1-.2-.2v-.2h.3c0-.2-.2-.3 0-.3l1.5-.5.2-.2-.4-.2s-.3-.1-.2-.2a2.9 2.9 0 0 1 .6-.2 3 3 0 0 1 .3-.4l-.3-.2a3.2 3.2 0 0 1 1.4-1.7l.3-.3.4-.3a3 3 0 0 1-.7-.3c-.2 0 0-.2 0-.2s-.2-.2 0-.2a14.5 14.5 0 0 1-2.2.2s-.5-.2-.2-.3h.2c-.2 0-.5-.2-.3-.3h-.2s-.3-.2-.1-.3a5.8 5.8 0 0 1 .8-.2.5.5 0 0 1 0-.1l-.2-.2a2 2 0 0 1 .5-.3 2 2 0 0 1 .4-.3 1.2 1.2 0 0 1 .7-.2 3.5 3.5 0 0 1 .4-.1h.1a.3.3 0 0 1 .3 0h.2a3.2 3.2 0 0 1 1.4.5l.2.2h.1a3.4 3.4 0 0 1 0-.7V82a3.3 3.3 0 0 1-.2-.7l-.2-.1a.4.4 0 0 1-.2-.1 2.4 2.4 0 0 1-1 0 .6.6 0 0 1-.2-.2c-.2 0-.8-.3-.4-.5a5.2 5.2 0 0 1 .7-.3 4 4 0 0 1-1.2 0c-.1 0-.5-.3-.2-.5a3.5 3.5 0 0 1 .6-.3.1.1 0 0 1 0-.1c-.2-.1-.4-.3-.2-.4-.2 0-.5-.3-.3-.5a4.6 4.6 0 0 1 2.3-.7 6.8 6.8 0 0 1-1.3 0s-.4-.3-.2-.3a2.7 2.7 0 0 1 1 0h.5a7.5 7.5 0 0 1 1 0l.7.1a4.5 4.5 0 0 1 .7 0 3.5 3.5 0 0 1 1 .2l-.3-.5c0-.2.2-.1.3 0l.1.3v-.7c0-.1.2-.1.2 0a.2.2 0 0 1 .1 0v-.2h.1v-.2h.3V76h.7l.3-1h1a3.5 3.5 0 0 1 0 1v.4s.5 0 .5.2a3 3 0 0 1 .3-.3h.4v-.2a6.8 6.8 0 0 1 1-1.5h.4l-.4 1.3.2-.2.5.1a8.8 8.8 0 0 1-.7 1h.4a1.5 1.5 0 0 1 0 .3 25 25 0 0 1 3.6-1.4c.1 0 .8 0 .8.2a1.1 1.1 0 0 1-.3.4c.3 0 .7.2.6.3a4.8 4.8 0 0 1-.3.2 1 1 0 0 1 .1 0 3.5 3.5 0 0 1 1 .4v.2l1 .5c.4.2.2.3 0 .3v.2c.3 0 0 .1-.1 0a2.3 2.3 0 0 1 .2.5h-.3c0 .2-.2.2-.3.2a2.2 2.2 0 0 1-1-.3l-.1.3c.2 0 .1.2 0 .2h-.5a1 1 0 0 1 0 .2 3.6 3.6 0 0 1 2 .8v.2h1c.2 0 1 .5.3.5h-.5a.5.5 0 0 1-.1 0 .2.2 0 0 1-.3 0 5.2 5.2 0 0 1-.6 0h-.4a2.6 2.6 0 0 1 .4.7c.1.1 0 .2-.2.2a.9.9 0 0 1 .2.5v.1a2.6 2.6 0 0 1 .6.2.4.4 0 0 1 0 .1l.3.1a4.4 4.4 0 0 1 1.3.8c.3.2 0 .4-.3.3h-.5a.2.2 0 0 1-.2.2 1.9 1.9 0 0 1-.3 0 1.3 1.3 0 0 1 0 .2c.1.2-.2.1-.3 0h-.1v.1l-.2.2v.3l.2.2a.7.7 0 0 1 .3 0l.2.2a1.2 1.2 0 0 1 .3.2v.2l.2.2c.1 0 0 .2 0 .2a2.2 2.2 0 0 1 .6 1v.3c0 .2 0 .2-.2.2a.8.8 0 0 1 0 .4.8.8 0 0 1-.3.6 1.5 1.5 0 0 1 0 .4c-.2.2-.6 0-.6 0h-.1c0 .2-.5 0-.5 0a2 2 0 0 1-.5-1 1.3 1.3 0 0 1-.2-.2.6.6 0 0 1 0 .4 2.3 2.3 0 0 1 .1.3 1 1 0 0 1-.5 0 2.6 2.6 0 0 1 .4 1.2c0 .2-.2.1-.3.1a2.6 2.6 0 0 1 .1 1.1c0 .2-.4 0-.5 0a3 3 0 0 1 0 .3.2.2 0 0 1 0 .2v.2a1.2 1.2 0 0 1-.2.2 6.1 6.1 0 0 1-.4 1.5h-.2v1a2.2 2.2 0 0 1-.3 1.5h-.3a3.4 3.4 0 0 1-.1.8c0 .2-.5 0-.5 0a3.3 3.3 0 0 1-.2-1.6 11.7 11.7 0 0 0 0-.8.3.3 0 0 1-.2 0 7 7 0 0 1-.2-1.3.6.6 0 0 1-.2 0 1 1 0 0 1-.2-.5.6.6 0 0 1-.4 0c0 .2-.5 0-.5 0a6 6 0 0 1 0-.8v-.4h-.2v-.1l-.2-.2a1.4 1.4 0 0 1 0-.4 1 1 0 0 1-.4.4h-.3v.6h-.4a1.2 1.2 0 0 1-.7-.2l.6.6a3 3 0 0 1 1 1.6 1.8 1.8 0 0 1 .4 1s-.2.2-.3 0a2.4 2.4 0 0 1-.7-.1.1.1 0 0 1 0 .2 1.8 1.8 0 0 1 0 .2.1.1 0 0 1 0 .1l.1.2c.1.2-.3.3-.4.1l.2.6c.1.1 0 .2-.2.2.2.2 0 .3-.1.3a5.6 5.6 0 0 1 .5.8c0 .2-.3.3-.4.2a4 4 0 0 1-1.3-1.3 2.7 2.7 0 0 1-.5-1 1.8 1.8 0 0 1-.2-.2 4491.5 4491.5 0 0 0-.3 33.1v9.6h-.8v-10.5c0-10.5.2-25 .3-31.4a8.3 8.3 0 0 1-.2.8s-.5 0-.5-.2a2.3 2.3 0 0 1-.3.4h-.5l.1-.4a8.4 8.4 0 0 1-.4.5s-.6 0-.5-.2a2.1 2.1 0 0 1 .2-.4l-.2-.1a5.8 5.8 0 0 1 .4-.5 7.8 7.8 0 0 1-.5.6 2 2 0 0 1-.4.6h-.4a4.5 4.5 0 0 1-.2.3l-.5-.1h-.2l-.3-.3a8 8 0 0 0 .4-1l-.6.2-.5-.2.8-.3.5-.4-.3-.2a2.8 2.8 0 0 1 .3-.2h-.2a4.4 4.4 0 0 1 .7-1s-.5 0-.4-.1a6.5 6.5 0 0 1 1-.7 1 1 0 0 1 0-.4h-.1a.6.6 0 0 1 .2-.3 6 6 0 0 1 .5-.6v-.7a1 1 0 0 0 0-.5h-.4l.1.5v.2h-.3v.3h-.3v.4c.2 0 .3.1.2.2a.4.4 0 0 1 0 .1s-1 0-1-.2a.3.3 0 0 1-.2 0 8.6 8.6 0 0 1-.4 2.1c0 .2-.6.1-.5 0l-.2.3c0 .2-.3.2-.4 0a7.7 7.7 0 0 1-.6 1.8c0 .2-.5 0-.5 0a2.9 2.9 0 0 1 0-.3c-.2 0-.4 0-.4-.3l.2-.8c-.2 0-.6 0-.4-.2l.4-.8a.2.2 0 0 1 0-.2.4.4 0 0 1-.5 0s-.5-.2-.3-.4a7.3 7.3 0 0 1 .2-.2s-.3-.2 0-.3a4.5 4.5 0 0 1 .3-.3l.1-.1a.1.1 0 0 1 .1-.2s-.2-.2 0-.3l-.4-.2c-.2 0-.7 0-.5-.2l.7-.5-1 .2s-.4 0-.3-.2l.3-.2c-.1 0-.2 0-.1-.2a7.8 7.8 0 0 0 .7-.5l-1.3.6a.6.6 0 0 1-.4 0 3.2 3.2 0 0 1-1.5 0c-.1 0-.3 0-.3-.2z" class="c"/>
  <path d="M152.4 59a5.7 5.7 0 0 0-1.6-1.2 5.5 5.5 0 0 0-1.4-.4 4.1 4.1 0 0 1 .5 0h.3a2.6 2.6 0 0 0-.9-1s.3 0 .2-.2l-.8-1a5 5 0 0 1 .4.3h.3a1.8 1.8 0 0 0-.4-1h.1a1.7 1.7 0 0 1 .3.5s.4 0 .3-.2a4.3 4.3 0 0 0-.8-1.9s.2-.1 0-.1a4.3 4.3 0 0 0-.4-.2s.3-.1.2-.2a1.4 1.4 0 0 0-.5-.2c.1 0 .2 0 0 0a2 2 0 0 0-.4 0 1 1 0 0 0-.3 0 .5.5 0 0 0 .1-.1l-.1-.1a1.8 1.8 0 0 0-1.2.6 1.3 1.3 0 0 0-.3.4l-.1.2a.5.5 0 0 0 0 .2 1.3 1.3 0 0 0 0 .3h-.2a2.8 2.8 0 0 0 0 .4 8.8 8.8 0 0 1-.2.3 1.1 1.1 0 0 0-.1.5v.1a1.5 1.5 0 0 0-.3 1 3.5 3.5 0 0 0-.5-.2h-.2a4.7 4.7 0 0 1-.3 0v-.2a.2.2 0 0 1-.1 0V55h.4a6.8 6.8 0 0 0-.3-.8 2.3 2.3 0 0 1 .6.4s.3 0 .3-.2a3.3 3.3 0 0 0-.2-.5h.2a7.5 7.5 0 0 0-.3-1 2.5 2.5 0 0 1 .4.3l.3-.1a4.4 4.4 0 0 0-.6-1c0 .1.4 0 .4 0a1.4 1.4 0 0 0-.4-.5c.2 0 .3-.2 0-.2l.8-.1s.2 0 .2-.2a2.3 2.3 0 0 0-.8-.7h.1s.3-.2 0-.2h-.2l-.2-.1h-.3c-.5 0-1-.3-1.3 0a1 1 0 0 0-.4.5l-.2.2c-.1.2-.5.1-.6.3-.4.3-.3 1.5-.8.8-.4-.5-.5-1.2-1.1-1.5h-.3c0 .7.3 1.2.3 1.7a1.8 1.8 0 0 0-.5-.5l-.3.1.2.5h-.5a2.3 2.3 0 0 0-1.5-.1 1.9 1.9 0 0 0-.6.3 3.4 3.4 0 0 1 1 .6 1.6 1.6 0 0 0-1.2.6c0 .2 0 .3.3.3a2.6 2.6 0 0 0 .5.4 5.5 5.5 0 0 0-.9 0 1 1 0 0 0-.8.6v.1a3.5 3.5 0 0 0 1 0c.3 0 0 .6 0 .8 0 .1 0 0 0 0h.4a2 2 0 0 0 0 .2 6 6 0 0 0 .5 0 .2.2 0 0 1 0 .2v.3a1.5 1.5 0 0 0 .5 0v.8a1 1 0 0 0-1-.2c-.6-1-1.6-1.6-2.6-.9h-.3c-.2 0 0 .3 0 .3l-.3.3c-.2 0-.2 0 0 0a2.5 2.5 0 0 0-.4.5c-.2 0-.4.2-.2.2v.3a.1.1 0 0 0 0 .1 2.1 2.1 0 0 0-1.1.7 2.8 2.8 0 0 0 1 .2c-.3 0-.6.6-.7.8h.2l.6-.1c0 .2.2 0 .2 0a2.7 2.7 0 0 0 .6 0h.2l.3-.3v.2c0 .1 0 0 .2 0a3 3 0 0 0 .5-.2 2.5 2.5 0 0 0 .5-.1.6.6 0 0 0 .3 0l-.3.3c.3 0 .5.2.6.5h.1a1.2 1.2 0 0 0-.7.8 4 4 0 0 0-3 2h.2l.6-.1a1.2 1.2 0 0 0-.2.3 3.4 3.4 0 0 0-.5 1c0 .2.3.2.3 0a2 2 0 0 1 .7-.8v.5c0 .1.1 0 .1 0l.9-.6v.4h.4a4 4 0 0 0-.6 3.4h.3v-.2h.2a2.6 2.6 0 0 0 .2.8.1.1 0 0 0 .2 0 2.6 2.6 0 0 0 .2 1c0 .2.2.2.3 0a2.1 2.1 0 0 0 0-.3 2.2 2.2 0 0 0 .3 1.3h.3a1 1 0 0 0 0-.2 2.8 2.8 0 0 0 .1.4h.3l.2-.6v.4c0 .2.3 0 .3 0a2.2 2.2 0 0 0 .2-.6.2.2 0 0 0 0-.1l.3-.9h.3v-.3a6 6 0 0 1 .2-1 7.6 7.6 0 0 1 1.8-1.6.6.6 0 0 1 .7 0 7.5 7.5 0 0 1-.5.5 8 8 0 0 0-1 1c-1 1.8-.6 3.4-.3 5.3 0 .2.3.1.3 0a4.6 4.6 0 0 1 .2-1 6 6 0 0 0 .3 2.2.2.2 0 0 0 .3 0l.1-.8a3 3 0 0 1 .2.3v.4a1.8 1.8 0 0 0 .2 1h.2v-.2a4.8 4.8 0 0 0 .3.6h.2l.2-.7a6431.8 6431.8 0 0 1-.3 48.8l-.3 14a64.3 64.3 0 0 1 0 1.3h1l.1-1.1.3-15.4.3-47v.2a.2.2 0 0 0 .4 0v-.7a2.8 2.8 0 0 0 .3.2.2.2 0 0 0 .2 0 3.2 3.2 0 0 0 0-1.6 8.7 8.7 0 0 1 0-1 .2.2 0 0 0 0-.2 3.5 3.5 0 0 0 0-.4 4.5 4.5 0 0 1 .2-1.3.1.1 0 0 0 0-.2 7 7 0 0 1 .2-1.5v-.2a.1.1 0 0 0 .1 0 2.6 2.6 0 0 0-.1.6h.3l.2-.3a1.3 1.3 0 0 1 .2.1 3.5 3.5 0 0 0 0 .7c0 .2.1 0 .2 0l.2 1v.3h.3a4 4 0 0 0 0-1.2.3.3 0 0 0 .2-.1l.2-.3-.2.8h.3l.4-.6a5.9 5.9 0 0 0-.2.7h.3l.2-.6-.2 1h.3l.2-.5a4.7 4.7 0 0 0 0 .4h.3v-.3.5h.3a7.7 7.7 0 0 0 0-1.6 11.8 11.8 0 0 0 .4 1.7h.3a4.3 4.3 0 0 0-.2-1.1 2.5 2.5 0 0 0 .3.3h.3l-.1-.7a2.7 2.7 0 0 0 .4.4l.3-.1c0-.6-.4-1.2-.4-1.8h.3a1 1 0 0 0-.2-.4h.3c-.3-1.5-1.5-2-2.5-2.7a1.1 1.1 0 0 0 .2 0h.5l.3-.1-.2-.2.4.2.3-.2-.5-.3.7.3a6.4 6.4 0 0 0 .7.3l.5.5.3-.1-.1-.3h.1a12.6 12.6 0 0 0 1.3.9l.3-.1a1.8 1.8 0 0 0-.4-.8h.2a1.4 1.4 0 0 0-.6-.8c.1 0 .3 0 .2-.2a3 3 0 0 0-1-.8s.4 0 .3-.1c0-.4-.5-.5-.8-.6l-.6-.2s.3 0 .1-.2l-.4-.2 1.4.2s.3 0 .2-.2l-.4-.2h.8l-.3-.3a4.6 4.6 0 0 0 .6.1.3.3 0 0 0 .2 0 4 4 0 0 0 .4 0h.2c-.1-.3-.3-.4-.5-.5a2.5 2.5 0 0 1 .4 0h.3l-.1-.1a1.9 1.9 0 0 0 .2 0h.3a1.8 1.8 0 0 0-.5-.8l.3.2h.2zm-8.7 10.4V69a.1.1 0 0 0 .2.2.2.2 0 0 0-.2.1zm1.8-1l.1-.3a6.3 6.3 0 0 1 0 .3z" class="c"/>
  <path d="M149.3 77a2.5 2.5 0 0 0 .8 0 .4.4 0 0 0 .2 0 3.3 3.3 0 0 0 .4 0 4.1 4.1 0 0 1-.4 0c-.2.2 0 .4.2.4h.2l.2.1.3.2h.2a.3.3 0 0 0 .2.1 1.7 1.7 0 0 0 .3.4c-.2.1.2.3.3.2a3.4 3.4 0 0 0 .4.2 5.6 5.6 0 0 0-2.4 5.6c0 .1.3.2.4.1a7.2 7.2 0 0 0 .2-1.2v.2c0 .2.5.3.5.1a8.1 8.1 0 0 0 0-.6 2.7 2.7 0 0 0 0 .3h.5v-.4h.3a.3.3 0 0 0 .3 0h.3v-.2a.3.3 0 0 0 .2 0h.3a2.7 2.7 0 0 0 0-.3l.1.4h.3v.3a.3.3 0 0 0 .2.1 4.5 4.5 0 0 0 .2.6s.3.2.4 0a1.1 1.1 0 0 0 0-.3l.3 1.8s.3.2.4 0a2.7 2.7 0 0 0 0-.7l.3 1.6h.3v.3c0 .2.4.3.4.1v-.6.1l.3.7s.3.2.3 0l.1 39 .2 12.2h1l-.3-11.1V86.3a4.9 4.9 0 0 1 .6.7h.5a.5.5 0 0 0 .4 0s.4.2.4 0a3 3 0 0 0-.2-.3h.1a9.7 9.7 0 0 0 0-.2h.2s.3.3.3 0v-.2a1.8 1.8 0 0 0 0-.5s.4.2.3 0a3.5 3.5 0 0 0-.2-.4s.5.2.4 0a5.6 5.6 0 0 0-.5-1v-.2a2.6 2.6 0 0 0-.1-.5 9 9 0 0 0-.3-1.1.1.1 0 0 0 0-.1h.4a2.5 2.5 0 0 0 .2.2.3.3 0 0 0 .2 0 1.3 1.3 0 0 0 .2.2h.3a3.8 3.8 0 0 0 .5.7.3.3 0 0 0 .2 0c0 .2.3.2.3 0 .1.2.4.3.5.2a2.8 2.8 0 0 0 0-.4h.2a1.7 1.7 0 0 0 .2-.4s.3.2.3 0a1.6 1.6 0 0 0 0-.2l.2-.1v.3a.3.3 0 0 0 .3 0h.3a5.2 5.2 0 0 0-.3-2 1.9 1.9 0 0 0-.3-.6l-.2-.3a1.6 1.6 0 0 0 .9.7h.2a2.6 2.6 0 0 0 0-.5l.6 1h.3a3.1 3.1 0 0 0-.2-.6h.3a1.7 1.7 0 0 0 0-.3h.2a8 8 0 0 0-.4-.8 3.8 3.8 0 0 0 0-.5h.2a1.2 1.2 0 0 0-.2-.6 1.6 1.6 0 0 0 .2 0 1.6 1.6 0 0 0 .6.2v-.1l.4-.1a2.2 2.2 0 0 0-.2-.4l.1-.1a2.4 2.4 0 0 0-.3-.4 1 1 0 0 0 .3 0v-.1a2.2 2.2 0 0 0-.1-.3 2.3 2.3 0 0 0 .3 0h.2a1.1 1.1 0 0 0-.2-.4h.2l-.2-.2v-.1a1 1 0 0 0 .3 0s.2 0 0-.2a1.4 1.4 0 0 0-.1-.2.1.1 0 0 0 0-.1 4.4 4.4 0 0 0-.6-.4.3.3 0 0 0-.2 0 2.6 2.6 0 0 0-1.3-.4h-.5a4 4 0 0 0-1.4.3.6.6 0 0 0-.1 0 .3.3 0 0 0 .1-.2 1.3 1.3 0 0 0 .8 0V75a1.2 1.2 0 0 0 .2 0 1 1 0 0 0 .5 0v-.2a1.4 1.4 0 0 0 0-.2 1.4 1.4 0 0 0 .1 0v-.3h.2a2 2 0 0 0-.3-.6 1.3 1.3 0 0 0 .2 0h.1a1.7 1.7 0 0 0-.5-.6.6.6 0 0 0 0-.1h.2a4.1 4.1 0 0 0-1.5-1h.7c.3 0-.5-.5-.7-.4h-.1a1.4 1.4 0 0 0-.3-.1h-1a1.3 1.3 0 0 1-.1 0h.2a4.4 4.4 0 0 0-.3-.6l.3.1h.2a2.1 2.1 0 0 0 0-.2v-.1h-.2a.1.1 0 0 1 0-.1h.5c.2 0 .2 0 0 0a4.2 4.2 0 0 0-.9-.5 2.6 2.6 0 0 0 1-.3c-.2-.5-1-.4-1.4-.3h-.4a1.1 1.1 0 0 0-.6 0l-.5-.6c0-.2-.9-.3-.8 0h-.5a2.7 2.7 0 0 0 .2.4 1 1 0 0 0-.5 0h-.2a1.6 1.6 0 0 0-.5 0 9.1 9.1 0 0 0-1 0c-.1 0 0 .3.2.3a1.3 1.3 0 0 1 .3 0 8.4 8.4 0 0 0-.7 0c-.2 0 0 .3.2.3a.6.6 0 0 0-.2 0 .6.6 0 0 0-.2 0 .3.3 0 0 0-.2.3h-.2s-.1 0 0 .1a1.2 1.2 0 0 0 .2.2c-.3 0-.1.2 0 .3h.4a.7.7 0 0 1 .2.1 3.4 3.4 0 0 1 0 .5 1.2 1.2 0 0 1 0 .2h-.1a.9.9 0 0 0 0 .4 4.3 4.3 0 0 0-.7-.4 5 5 0 0 0-2.3-.6 1.8 1.8 0 0 0-1 0 2.5 2.5 0 0 0-.9.3v.2a8 8 0 0 0 1.4 0h-.2c-.2.2 0 .5 0 .5h.5-.6c-.2 0 0 .3 0 .3a7 7 0 0 1 .8 0c-.3 0-.2.3 0 .4a4.3 4.3 0 0 1 1 .1h-.7c-.2 0-.2.3 0 .3l1 .2h-.2v.3h.2-.2c-.2 0-.3.2-.1.3l.3.2c-.2 0-.3 0-.1.2a.3.3 0 0 0 0 .1 3 3 0 0 0-.2 0c-.1 0-.2.1 0 .2a3.4 3.4 0 0 0 .3.3.7.7 0 0 0 0 .1 5.6 5.6 0 0 0-1 0 4.3 4.3 0 0 0-3.7 1.7l.2.2zm11.6-6.7l.4.2h-.4zm-4.2 16v.3-.3z" class="c"/>
  <path d="M154 103.4V102l.6.7v-.5l-1.7-2-1-3v-.4.1-1.2l.5.6V96a22.4 22.4 0 0 0-1.3-1.6l-1-3.4-.4-.7.4.4v-1l.4.6v-.4a17.5 17.5 0 0 0-2.2-2.1l-2.4-4.2v-1l.4.2v-.3a11 11 0 0 0-1.2-.8l-1-2v-.8l.3.2v-.2a8.2 8.2 0 0 0-1.8-1A4.6 4.6 0 0 0 141 75v-.7h.3v-3h-.6V70h-1.3v-1a.8.8 0 0 0 0-1.6V67c.4 0 .6-.2.6-.4s-.2-.3-.6-.3V65h-.4v1.3c-.3 0-.6.1-.6.3s.3.3.6.3v.6a.8.8 0 0 0 0 1.5v1h-1.3v1.2h-.5v3.1h.2v.7a4.6 4.6 0 0 0-1.4 2.7 8.2 8.2 0 0 0-2 1v.2l.4-.2v.8l-1 2a11 11 0 0 0-1.2.8v.3l.4-.3v1.1l-2.3 4.2a17.6 17.6 0 0 0-2.3 2v.5l.4-.5v1l.5-.5-.5.7-1 3.4-1.3 1.6v.4l.5-.6v1.2-.1.4l-1 3-1.7 2v.5l.6-.7v1.5l-1 4.8-1.2 1.3v.5l.7-.7v1.4l2.8-1.7v11h-7.5v-11l2.8 1.7v-1.4l.6.7v-.5a27.5 27.5 0 0 0-1-1.3l-1-4.8V102l.5.8v-.6l-1.7-2-1-3v-.4.1-1.2l.5.6V96a22.4 22.4 0 0 0-1.3-1.6l-1-3.3-.5-.8.5.4v-1l.4.6v-.4a17.5 17.5 0 0 0-2.3-2.1l-2.3-4.2v-1l.4.2v-.3a11 11 0 0 0-1.3-.8l-1-2v-.7l.4.1v-.2a8.2 8.2 0 0 0-2-1 4.6 4.6 0 0 0-1.3-2.7v-.7h.2v-3h-.5V70h-1.3v-1a.8.8 0 0 0 0-1.6V67c.4 0 .6-.2.6-.4s-.2-.3-.6-.3V65h-.4v1.3c-.4 0-.6.1-.6.3s.2.3.6.3v.6a.8.8 0 0 0 0 1.5v1h-1.3v1.2h-.6v3.1h.3v.7a4.6 4.6 0 0 0-1.5 2.7 8.2 8.2 0 0 0-2 1v.2l.4-.2v.8l-1 2a11 11 0 0 0-1 .8v.3l.3-.3v1.1L96 87.6a17.5 17.5 0 0 0-2.2 2v.5l.4-.5v1l.4-.5-.4.7-1 3.4-1.3 1.6v.4l.5-.6v1.2l.1-.1v.4l-1 3-1.8 2v.5l.5-.7v1.5l-1 4.8-1 1.3v.5l.5-.7v1.4l2.9-1.7v11H84v-11l3 1.7v-1.4l.5.7v-.5a28.7 28.7 0 0 0-1-1.3l-1-4.8V102l.5.7v-.5l-1.7-2-1-3-.2-.4v.1-1.2l.6.6V96a22.6 22.6 0 0 0-1.3-1.6l-1-3.4-.4-.7.4.4v-1l.5.6v-.4a17.5 17.5 0 0 0-2.3-2.1l-2.4-4.2v-1l.4.2v-.3a11 11 0 0 0-1.2-.8l-.9-2v-.8l.3.2v-.2a8.2 8.2 0 0 0-1.9-1 4.6 4.6 0 0 0-1.4-2.7v-.7h.2v-3h-.5V70h-1.3v-1a.8.8 0 0 0 0-1.6V67c.3 0 .6-.2.6-.4s-.3-.3-.6-.3V65h-.5v1.3c-.3 0-.6.1-.6.3s.3.3.6.3v.6a.8.8 0 0 0 0 1.5v1h-1.3v1.2h-.5v3.1h.2v.7a4.6 4.6 0 0 0-1.4 2.7 8.2 8.2 0 0 0-1.9 1v.2l.3-.2v.8l-.9 2a11 11 0 0 0-1.2.8v.3l.4-.2v1l-2.4 4.2a17.6 17.6 0 0 0-2.3 2v.5l.4-.5v1l.5-.5-.5.8-1 3.3-1.2 1.6v.4l.5-.6v1.2-.1.4l-1 3a26.9 26.9 0 0 0-1.8 2v.6l.6-.8v1.5l-1 4.8-1.1 1.3v.5l.6-.7v1.4l2.9-1.7v11h-7.6v-11l2.9 1.7v-1.4l.6.7v-.5a28.7 28.7 0 0 0-1.1-1.3l-1-4.8V102l.5.8v-.6l-1.6-2-1-3-.2-.4.1.1v-1.2l.5.6V96a22.6 22.6 0 0 0-1.3-1.6L47 91l-.4-.8.4.4v-1l.4.6v-.4a17.5 17.5 0 0 0-2.2-2.1l-2.4-4.2v-1l.4.2v-.3a11 11 0 0 0-1.2-.8l-1-2v-.7l.3.1v-.2a8.2 8.2 0 0 0-1.8-1A4.6 4.6 0 0 0 38 75v-.7h.3v-3h-.6V70h-1.3v-1a.8.8 0 0 0 0-1.6V67c.4 0 .6-.2.6-.4s-.2-.3-.6-.3V65H36v1.3c-.4 0-.6.1-.6.3s.3.3.6.3v.6a.8.8 0 0 0 0 1.5v1h-1.3v1.2h-.5v3.1h.2v.7a4.6 4.6 0 0 0-1.5 2.7 8.2 8.2 0 0 0-1.8 1v.2l.3-.2v.8l-1 2a11 11 0 0 0-1.2.8v.3l.4-.3v1.1l-2.3 4.2a17.6 17.6 0 0 0-2.3 2v.5l.4-.5v1l.5-.5-.5.7-1 3.4a22.9 22.9 0 0 0-1.3 1.6v.4l.5-.6v1.2l.1-.1v.4l-1 3a26.6 26.6 0 0 0-1.8 2v.5l.5-.7v1.5l-1 4.8-1 1.3v.5l.6-.7v1.4l2.8-1.7v29h-2v3h133.7v-3h-2v-29l3 1.7v-1.4l.5.7v-.5a28 28 0 0 0-1-1.3zm-.4-2l.3.3-.3-.3zm-2.1-6.2l.2.2-.2-.2zm-1.5-5.7l-.2-.2.2.2zm-.8-.8v.1zm-4-6.7zm-1.5-3.5c.1 0 .2 0 .3.2a7.2 7.2 0 0 0-.3-.2zm-.5-.3h.1-.1zm-8.3.3s-.2 0-.3.2a5 5 0 0 1 .3-.2zm.5-.3zm-2 3.8zm-4 6.7v.1zm-.5.6zm-1.8 5.9a22.6 22.6 0 0 0-.2.2l.2-.2zm-2 6.2l-.3.3.2-.3zm-1.8 7.7l.1-.2v.2zm-2.3 0v-.2.2zm-1.7-7.7l.2.3-.2-.3zm-2.1-6.2l.2.2a12.2 12.2 0 0 0-.2-.2zm-1.5-5.7l-.3-.2.3.2zm-.8-.8v.1zm-4-6.7zm-1.5-3.5s.2 0 .3.2a7.4 7.4 0 0 0-.3-.2zm-.6-.3h.2a2.8 2.8 0 0 0-.2 0zm-8.2.3zm.5-.3h-.1zM99 82zm-4 6.7v.1zm-.6.6l-.2.2.2-.2zm-1.7 5.9zm-2.1 6.2l-.3.3.3-.3zm-1.8 7.7l.2-.2-.2.2zm-2.2 0l-.2-.2.2.2zm-1.7-7.7l.2.3-.2-.3zm-2-6.2v.2-.2zm-1.7-5.7l-.2-.2.2.2zm-.7-.8v.1zm-4-6.7l.4.2-.4-.2zM75 78.5l.2.2-.2-.2zm-.6-.3h.2zm-8.2.3c-.1 0-.2 0-.3.2a6.7 6.7 0 0 1 .3-.2zm.5-.3a3.3 3.3 0 0 0-.1 0zm-2 3.8zm-4 6.7v.1zm-.5.6l-.2.2.2-.2zm-1.7 5.9l-.3.2.3-.2zm-2 6.2l-.4.3.3-.3zm-2 7.7l.3-.2a5 5 0 0 0-.2.2zm-2 0l-.3-.2.2.2zm-2-7.7l.4.3-.3-.3zm-2-6.2l.3.2-.3-.2zM47 89.5l-.2-.2.2.2zm-.8-.8v.1zm-4-6.7zm-1.5-3.5zm-.5-.3zm-8.3.3zm.6-.3h-.2.2zM30.4 82zm-4 6.7v.1zm-.5.6l-.2.2.2-.2zM24 95.2l-.2.2.2-.2zm-2 6.2l-.3.3.2-.3zm-1.8 7.7l.2-.2zm135 0v-.2.2z" class="d"/>
  <path d="M295.1 106.6h7.5v31.6H295z" class="e"/>
  <path d="M278.9 111.6l1.4.3v25.5h-2zm75.3 4.4l-.8-1.3-.2 22.7h1.5zm-13.4-4l2.6.4V137h-2.5zm-11.6-2h1v27h-1v-26.8m-61.5-.3l.8.1v27.3h-1.3zm-14.5 2.8l4.3-.9v26.4H253zm-18.5 4.4l10-1.3v21.7h-10z" class="d"/>
  <path d="M295.9 112.8h6v-7h12.7v-1.6L304 103v1.2h-10.5V103l-10.5 1.2v1.7h13z" class="a"/>
  <path d="M363 137v-20l-8.8-1v21h-.8v-22.3l-10.3-2.3V137h-1.9v-25l-11.3-2v27h-.7v-27l-10.6 1.6V137h-.8v-.8h-10.2v.8h-.2v-.8h-5v.8h-7.2v-.8h-5v.8-.8H280v.8h-.8v-25.4l-10.6-1.6v27h-.8v-27l-11.3 2v25h-1.8v-24.6l-10.3 2.2V137h-.8v-21l-8.8 1v20h-3.4v4H366v-4zm-112 0h-4v-5h3.8zm-4.2-8l2.7-12.3 1.6 12zm18.2 8h-4.4v-5.8h4.4zm-4.7-9l3-14 1.8 13.4zm12.8 5.4c-1.7 0-3.2-1.9-3.2-4.2s1.5-4.2 3.2-4.2 3.3 2 3.3 4.2-1.5 4.2-3.3 4.2zm51.6 0c-1.8 0-3.2-1.9-3.2-4.2s1.4-4.2 3.2-4.2 3.2 2 3.2 4.2-1.4 4.2-3.2 4.2zm12.6 3.6h-4.4v-6h4.4zm-4.5-9.6l1.7-13.3 3 13.8zm17.8 9.6H347v-5h3.7zm-3.9-8.4l1.6-12L351 129z" class="d"/>
  <path d="M279.7 106.6h15.5v30.7h-15.5zm22.6 0h15.5v30.7h-15.5z" class="d"/>
  <path d="M249.4 116.6l-2.8 12.5 4.5-.3zm-2.6 15.4h4.3v5.3h-4.3zm16.4-18.2L260 128l5.3-.6zm-3 17.3h5v6.2h-5zm9.5-2c0-2.5 1.6-4.5 3.4-4.5 2 0 3.4 2 3.4 4.5s-1.5 4.5-3.4 4.5-3.4-2-3.4-4.5zm51.5.3c0-2.5 1.5-4.5 3.4-4.5s3.4 2 3.4 4.5-1.5 4.5-3.4 4.5c-2 0-3.4-2-3.4-4.5zm13.2-15.7l-1.9 13.8 5.1.5zm-1.8 17.4h4.7v6.2h-4.7zm15.6-14.5l-1.8 12 4.7.5zm-1.6 15.4h4v5.3h-4z" class="a"/>
  <path d="M318.7 111.6l-1.4.2v25.6h1.8z" class="d"/>
  <path d="M283.1 106.6v-2.4l10.5-1.1v1H304v-1l10.6 1v2.5zm-9.2 4.2v-3.2l2.6-1.6h.6l2 .2v5.4zm44.7-4.6v5.4l5.3-.8v-3.2l-2.7-1.6h-.7z" class="e"/>
  <path d="M232.2 119.6l.7-.3-.7-.2v-1a.7.7 0 0 0-.2-.5v-3.4h.2v-1.3h.6l.8-1-1-.9h-.3v-.6c.2 0 .3 0 .3-.2h-.3v-.7c0-.3-.2-.6-.6-.7v-.6c.2 0 .3-.1.3-.2l-.3-.2v-.3h.8a.1.1 0 0 0 .1 0 1.6 1.6 0 0 0 0-.4c0-.7-1-1.7-2-2v-.1h-.5v-.3c.2 0 .3 0 .3-.2s0 0-.3-.2v-.1l.3-.1c0-.1 0-.2-.3-.2a.2.2 0 0 0 0-.5v-.2h.2s0-.2-.2-.2a.2.2 0 0 0-.3 0h-.1l.1.3v.1a.2.2 0 0 0 0 .4v.1l-.2.2h.2v.2l-.2.2s0 .2.2.2v.2h-.5v.1c-1 .4-2 1.3-2 2a1.6 1.6 0 0 0 0 .4.1.1 0 0 0 .2 0h.7v.4c-.2 0-.3.1-.3.2l.3.2v.6c-.3.1-.6.4-.6.7v.6h-.2l.2.2v.7h-.4l-.8 1 .8 1h.5v1.2h.2v3.4a.7.7 0 0 0 0 .4v.2h-2v-2.9a4.6 4.6 0 0 1 .2-1 4 4 0 0 1 0-.3c-.1 0-.3 0-.4.2 0-.4 0-.5-.2-.5h-.1a.3.3 0 0 0-.2-.1v-1h-.2v1a.3.3 0 0 0-.1.2l-.2-.1v.5c-.3-.3-.4-.4-.6-.3v.4a4.7 4.7 0 0 1 .4 1v2.2h-.1v.7h-.7v-.8h-2.4v-.9c0-.2-.4-.5-1-.7v-.6c.2 0 .3-.1.3-.2h-.4v-1.4a.4.4 0 0 0 .4-.2 3.4 3.4 0 0 0 0-.5c0-2-2.8-4.2-5.4-5l.1-.2h-.4c0-.1.1-.2 0-.2h-.3a.8.8 0 0 0-.1 0c0-.2-.2 0-.4 0a.2.2 0 0 0 0-.2.3.3 0 0 0-.3-.3v-.4a.3.3 0 0 0 0-.6v-.3l.2-.2-.2-.2a.1.1 0 0 0 0-.2v-.5h-.3v.2a.1.1 0 0 0 0 .1v.3l-.2.2.2.2h-.1c0 .2 0 0 .1 0v.3a.3.3 0 0 0 0 .5v.1h-.1l.1.2v.2a.3.3 0 0 0-.2.3.7.7 0 0 0-.1.1h-.4v.2h-.8v.2c-2.4.7-4.9 2.8-5.3 4.6v-2a5.1 5.1 0 0 1 .3-1.2 4.8 4.8 0 0 1 .2-.3v-.2c-.2 0-.4 0-.6.4 0-.4 0-.6-.2-.6v.1a.3.3 0 0 0-.3-.2v-1a.1.1 0 1 0-.2 0v1a.3.3 0 0 0-.2.2c-.2 0-.3 0-.3.5 0-.3-.3-.4-.4-.4l-.1.2.1.3a5.1 5.1 0 0 1 .3 1.2v.4c-1-2.4-4.5-5-7.7-6v-.2s-.1-.2-.4 0v-.4h-.6a1.1 1.1 0 0 0-.2 0l.1-.1h-.5a1 1 0 0 0-.2 0 .3.3 0 0 0 0-.2.5.5 0 0 0-.4-.4v-.3l.2-.1h-.2v-.3a.4.4 0 0 0 0-.8v-.2h.2l-.2-.1v-.2c.2 0 .3 0 .3-.2s0-.2-.3-.2v-.2a.1.1 0 0 0 0-.3.2.2 0 0 0 0-.2h.1l-.2-.1v-.2a.1.1 0 0 0-.2 0v.2h-.2l.2.1a.2.2 0 0 0 0 .2l-.2.2a.2.2 0 0 0 .2.1v.2c-.2 0-.3 0-.3.2s0 .2.3.2v.2h-.3.3v.3a.4.4 0 0 0 0 .8v.2h-.3s0 .2.3.2v.3a.5.5 0 0 0-.5.4.3.3 0 0 0 0 .2 1 1 0 0 0-.1 0h-.6l.1.2a1.2 1.2 0 0 0-.2 0c-.2-.2-.5-.2-.6 0l.2.2h-.7a.1.1 0 0 0 0 .2c-3 1-6.5 3.5-7.6 6v-.3a5.1 5.1 0 0 1 .3-1.2 4.8 4.8 0 0 1 .2-.3l-.1-.2c-.1 0-.3 0-.5.4l-.1-.6-.2.1a.3.3 0 0 0-.2-.2v-1a.1.1 0 1 0-.2 0v1a.3.3 0 0 0-.1.2h-.2c-.1 0-.2 0-.2.5-.1-.3-.3-.4-.4-.4v.5a5.1 5.1 0 0 1 .3 1.2v2c-.4-1.8-3-3.8-5.3-4.5v-.2h-.3v-.2h-.8a.7.7 0 0 0-.1 0 .2.2 0 0 0 0-.2.3.3 0 0 0-.3-.3v-.2h.2s0-.2-.2-.2a.3.3 0 0 0 0-.6h.2l-.2-.3c.2 0 .2-.1.2-.2l-.2-.2a.1.1 0 0 0 .1-.1v-.1a.1.1 0 0 0-.1-.2v-.2h-.2v.2a.1.1 0 0 0 0 .1v.5l-.2.2s0 .2.2.2v.3a.3.3 0 0 0 0 .6v.2c0 .2 0 0 0 0v.2a.3.3 0 0 0-.3.3.2.2 0 0 0 0 .1h-.5l.1.2a.7.7 0 0 0-.1 0c-.2-.2-.4-.2-.4 0-.2 0-.3 0-.4.2-2.5.8-5.2 3.1-5.2 5a3.5 3.5 0 0 0 0 .6.4.4 0 0 0 .3.2v1.4h-.4l.4.2v.7c-.6.2-1 .4-1 .7v.8h-2.3v1h-.8v-1h-.1v-2a4.7 4.7 0 0 1 .2-1c0-.2.1-.3.2-.3v-.2c-.2 0-.4 0-.5.3 0-.3 0-.5-.2-.5v.1a.3.3 0 0 0-.3-.2v-.9h-.2v1a.3.3 0 0 0 0 .1h-.3s-.2 0 0 .4c-.3-.3-.5-.3-.5-.3v.2a3.5 3.5 0 0 1 0 .2 4.7 4.7 0 0 1 .2 1.1v2.8h-2v-.2a.7.7 0 0 0-.1-.4v-3.5h.2v-1.3h.6l.8-1-1-.9h-.3v-.6c.2 0 .3 0 .3-.2h-.3v-.7c0-.3-.2-.5-.6-.7v-.6c.2 0 .3-.1.3-.2l-.3-.2v-.3h.8a.1.1 0 0 0 .1 0 1.4 1.4 0 0 0 0-.3c0-.8-1-1.8-2-2.1v-.2h-.4v-.2s.2 0 .2-.2 0 0-.2-.2v-.1l.2-.1-.2-.2a.2.2 0 0 0 0-.5v-.5a.2.2 0 0 0-.4 0v.1l-.1.2c0 .2 0 0 .1 0v.2a.2.2 0 0 0 0 .4v.1l-.2.2h.2v.2l-.2.2s0 .2.2.3v.1h-.4v.1c-1 .4-2 1.3-2 2.2a1.7 1.7 0 0 0 0 .2.1.1 0 0 0 .1 0h.8v.4l-.4.2.3.2v.6c-.3.2-.6.4-.6.7v.6h-.2l.2.3v.6h-.4l-.8 1 .8 1h.6v4.6a.7.7 0 0 0 0 .4v1l-.7.3.6.3h.1v3l-.7.4.6.3h.1v5.3l-.7.3.6.3h.1v4l-.7.2.6.3h.1v4.8l-.7.3.6.3h.1v1l-.7.4.6.3h74l.7-.3-.7-.3v-1l.7-.4-.7-.3v-4.8l.7-.3-.7-.3v-4l.7-.2-.7-.3v-5.3l.7-.3-.7-.3v-3z" class="d"/>
  <path fill="#eaeaea" d="M351.8 141.1l25.3-9.8 12.3-10 7.6-21 3.1 2.2 2.5-14.8 4.4 3.5 1-14.4 3.7 6.8L413 60l2.5 23.5 2.6-6.8 1.3 14 4-3.1 2.5 14.7 3-2 6.3 19.7 12 11.2 11 9.8z"/>
  <path fill="#e5e0e0" d="M397 100.2l-13.2 41h9.2l6.4-39.3zm-45.3 41h14.6l11-10zm16 0H383l6.4-19.9zm35-53.5l-9 53.4h8l4-50.7zm5.2-11l-5.4 64.4h4.2l4-59.1zm8.6 35l-3.5-50V60v.8-.8 1.7l-3.5 50zm10.1-9.8l6.4 39.2h9.1l-13.1-41zm16.4 39.2h15.4l-21.8-19.8zm-23-50.7l4.3 50.7h7.8l-8.6-53.4zm-4.7-8.4l2 29.7v1.6l2 27.8h4.2L418 76.7zm-6 31.5h7.3l-.1-1.3h-7zm0 .4l-1.8 27.2h11l-1.9-27.2z"/>
</svg>